<?xml version="1.0" encoding="UTF-8"?>
<!DOCTYPE svg PUBLIC "-//W3C//DTD SVG 1.1//EN" "http://www.w3.org/Graphics/SVG/1.1/DTD/svg11.dtd">
<svg version="1.1" xmlns="http://www.w3.org/2000/svg" xmlns:xlink="http://www.w3.org/1999/xlink" x="0px" y="0px" width="10" height="10" viewBox="0, 0, 10, 10">
  <g id="icons">
    <path d="M5.02,-0 C5.35,0.033 5.692,0.002 6.008,0.099 C8.211,0.776 9.224,1.785 9.899,3.99 C9.997,4.311 9.966,4.659 10,4.993 L10,5.003 C9.966,5.337 9.997,5.684 9.899,6.006 C9.225,8.208 8.21,9.224 6.008,9.896 C5.685,9.995 5.336,9.964 5.001,9.998 C4.665,9.964 4.316,9.995 3.993,9.896 C1.791,9.224 0.774,8.207 0.102,6.006 C-0.033,5.563 -0.033,4.433 0.102,3.99 C0.775,1.785 1.791,0.775 3.993,0.099 C4.309,0.002 4.651,0.033 4.981,-0 z M5.001,0.998 C4.732,1.025 4.453,1 4.194,1.079 C3.7,1.23 3.194,1.393 2.764,1.681 C1.667,2.416 1,3.688 1,4.998 C1,7.173 2.825,8.998 5.001,8.998 C8.211,8.998 10.075,5.384 8.317,2.762 C7.536,1.595 7.031,1.595 5.806,1.079 z" fill="#74797F"/>
    <path d="M4,4.498 L5,5.498" fill-opacity="0" stroke="#74797F" stroke-width="1" stroke-linecap="round" stroke-linejoin="round"/>
    <path d="M7.5,3.498 L5,5.498" fill-opacity="0" stroke="#74797F" stroke-width="1" stroke-linecap="round" stroke-linejoin="round"/>
  </g>
  <defs/>
</svg>
